<svg id="Layer_4" data-name="Layer 4" xmlns="http://www.w3.org/2000/svg" viewBox="0 0 375.44 105.05"><defs><style>.cls-1{fill:#fff;}</style></defs><title>logo</title><path class="cls-1" d="M18.69,92.62c1.7-7.3,6.89-25.81,18.43-39.9,9.32-11.37,17-17.7,21.73-21a9.12,9.12,0,0,1,8.52-1A69.21,69.21,0,0,1,85,41.39c12,9.63,17.25,23.2,17.25,28A52.74,52.74,0,0,1,18.69,92.62ZM41.62,1.05A52.47,52.47,0,0,0,0,52.37,53.4,53.4,0,0,0,12.88,87.08l.1-.36C15.34,78,20.92,61.49,31.73,48.3,41.17,36.77,49.05,30.13,54,26.59a6.16,6.16,0,0,0,1.93-7.75,45.59,45.59,0,0,0-4.23-6.73,90.55,90.55,0,0,0-10-11.2m63.09,53.74c0-1,0-1.25,0-2.28A52.37,52.37,0,0,0,52.45,0c-.52,0-1.28,0-1.8,0l.09.09C53,2.56,55.2,5.19,57.26,7.91a61.68,61.68,0,0,1,6.35,10.93,9.36,9.36,0,0,0,5.33,5A71.26,71.26,0,0,1,89.32,35.91a56.4,56.4,0,0,1,10.49,11l.09.12a46,46,0,0,1,4.76,7.69l.15.31Z"/><path class="cls-1" d="M136.15,81.33V49.67H124.43V32.29h13.06V12.89h18.33v19.4h18.86V49.67H155.82V81.2c0,3.1,1.21,4.45,4.45,4.45h13.6V103.3H158.38C144.1,103.3,136.15,96.83,136.15,81.33Z"/><path class="cls-1" d="M184.79,67.73c0-20.75,13.74-37.19,32.06-37.19,10.92,0,16.85,4.85,20.22,9h1.48V2.24h19.67V103.3H238.55V96.69h-1.48c-3.37,4.45-9,8.36-19.14,8.36C199.61,105.05,184.79,89,184.79,67.73Zm54,.13c0-11.72-7.82-18.59-17.11-18.59-9.57,0-17,7.41-17,18.59s7.68,18.59,17.11,18.59C232.08,86.45,238.82,77.83,238.82,67.86Z"/><path class="cls-1" d="M273,32.29h19.67v6.47h1.48c2.43-3.77,7.82-8.22,16.17-8.22,9.3,0,15.23,4.31,18.73,10.37h1.48a22.66,22.66,0,0,1,19.67-10.37c14.69,0,25.2,10.91,25.2,24.79v48H355.77V62.07c0-8.22-4.58-12.53-10.65-12.53s-11,4.58-11,12.53V103.3H314.54v-43c0-6.74-4.85-10.78-10.91-10.78s-10.92,4.85-10.92,12.26v41.5H273Z"/></svg>