<svg id="Layer_4" data-name="Layer 4" xmlns="http://www.w3.org/2000/svg" viewBox="0 0 243.28 105.05"><defs><style>.cls-1{fill:#fff;}</style></defs><title>logo</title><path class="cls-1" d="M61.5,5.35C75.75.91,85.86-.35,88.77.08c4,.59,11.33,10.43,14.49,25.7a4.49,4.49,0,0,1-2.48,5.11A77.23,77.23,0,0,1,86,36a87.92,87.92,0,0,1-13.29,1.65h-.24a4.64,4.64,0,0,1-4.59-3.79A100.13,100.13,0,0,0,59.52,9.57a3.18,3.18,0,0,1-.05-2.63A3,3,0,0,1,61.5,5.35ZM44,89.52a4.63,4.63,0,0,1-5.84.85c-1.39-.83-2.79-1.69-4.19-2.6C13.46,74.48-1.29,52.36.09,43.55c1.54-9.84,22.08-23.12,45.12-32.38l2.15-.85A8.18,8.18,0,0,1,49,9.82a4.69,4.69,0,0,1,4.19,2.64C57.28,21,63.82,37.18,61.35,50.23,59,62.59,55.29,75.91,44,89.52m6.43,3.16a3.15,3.15,0,0,0,1.23,4.72c13.66,6.12,24.68,8.32,27.77,7.11,5.32-2.1,22.22-28.32,25-56.74.2-2.11.31-4.18.33-6.19a3,3,0,0,0-.72-2.29,3.18,3.18,0,0,0-2.25-.95,3,3,0,0,0-1.22.25A76.4,76.4,0,0,1,87.4,42.82,94.76,94.76,0,0,1,73,44.61a4.61,4.61,0,0,0-4.38,4.12c-.11,1-.25,1.89-.42,2.79C65.76,64.43,61.92,78.34,50.45,92.68Z"/><path class="cls-1" d="M124.31,67.73c0-20.75,13.74-37.19,32.07-37.19,10.91,0,16.84,4.85,20.21,9h1.48V2.24h19.67V103.3H178.07V96.69h-1.48c-3.37,4.45-9,8.36-19.14,8.36C139.13,105.05,124.31,89,124.31,67.73Zm54,.13c0-11.72-7.82-18.59-17.11-18.59-9.57,0-17,7.41-17,18.59s7.68,18.59,17.11,18.59C171.6,86.45,178.34,77.83,178.34,67.86Zm43.25-18.19H209.87V32.29h31.26v71H221.59ZM220,11.41C220,5.07,225,.09,231.7.09a11.27,11.27,0,0,1,11.58,11.32,11.66,11.66,0,0,1-23.31,0Z"/></svg>